<mxfile host="app.diagrams.net" modified="2021-01-19T03:06:58.390Z" agent="5.0 (Macintosh; Intel Mac OS X 11_1_0) AppleWebKit/537.36 (KHTML, like Gecko) Chrome/87.0.4280.88 Safari/537.36" etag="mAHrzOfh90-9lpOdZl6E" version="14.1.8" type="github" pages="2">
  <diagram id="4O332dbZxjz2SZ_RIFVR" name="框架">
    <mxGraphModel dx="770" dy="382" grid="1" gridSize="10" guides="1" tooltips="1" connect="1" arrows="1" fold="1" page="1" pageScale="1" pageWidth="850" pageHeight="1100" math="0" shadow="0">
      <root>
        <mxCell id="0" />
        <mxCell id="1" parent="0" />
        <mxCell id="dtwJh_OBQAG2XJbHNWbh-1" value="" style="rounded=1;whiteSpace=wrap;html=1;" parent="1" vertex="1">
          <mxGeometry x="210" y="210" width="120" height="60" as="geometry" />
        </mxCell>
      </root>
    </mxGraphModel>
  </diagram>
  <diagram id="Ht5ad0jB9F0IEHcvdERb" name="文件目录">
    <mxGraphModel dx="770" dy="382" grid="1" gridSize="10" guides="1" tooltips="1" connect="1" arrows="1" fold="1" page="1" pageScale="1" pageWidth="850" pageHeight="1100" math="0" shadow="0">
      <root>
        <mxCell id="K3c31UwAeXaa2C5wNBHY-0" />
        <mxCell id="K3c31UwAeXaa2C5wNBHY-1" parent="K3c31UwAeXaa2C5wNBHY-0" />
      </root>
    </mxGraphModel>
  </diagram>
</mxfile>
